<svg width="20" height="20" viewBox="0 0 20 20" fill="none" xmlns="http://www.w3.org/2000/svg">
<path d="M1.46001 3.15H16.6741C18.0521 3.15 19.0472 4.42 18.6692 5.698L17.0151 11.298C16.7601 12.158 15.9461 12.75 15.0201 12.75H5.86204C4.93504 12.75 4.12003 12.157 3.86603 11.298L1.46001 3.15ZM1.46001 3.15L0.75 0.75M14.2501 18.75C14.6479 18.75 15.0295 18.592 15.3108 18.3107C15.5921 18.0294 15.7501 17.6478 15.7501 17.25C15.7501 16.8522 15.5921 16.4706 15.3108 16.1893C15.0295 15.908 14.6479 15.75 14.2501 15.75C13.8523 15.75 13.4708 15.908 13.1894 16.1893C12.9081 16.4706 12.7501 16.8522 12.7501 17.25C12.7501 17.6478 12.9081 18.0294 13.1894 18.3107C13.4708 18.592 13.8523 18.75 14.2501 18.75ZM6.25005 18.75C6.64787 18.75 7.02941 18.592 7.31072 18.3107C7.59202 18.0294 7.75006 17.6478 7.75006 17.25C7.75006 16.8522 7.59202 16.4706 7.31072 16.1893C7.02941 15.908 6.64787 15.75 6.25005 15.75C5.85222 15.75 5.47068 15.908 5.18938 16.1893C4.90807 16.4706 4.75003 16.8522 4.75003 17.25C4.75003 17.6478 4.90807 18.0294 5.18938 18.3107C5.47068 18.592 5.85222 18.75 6.25005 18.75Z" stroke="black" stroke-width="1.5" stroke-linecap="round" stroke-linejoin="round"/>
</svg>
