<svg width="25" height="25" viewBox="0 0 25 25" fill="none" xmlns="http://www.w3.org/2000/svg">
<path d="M24.0647 10.0833C24.0215 8.55383 23.8768 7.5785 23.3868 6.74667C22.6892 5.5625 21.4338 4.90333 18.9243 3.58733L16.591 2.36233C14.5423 1.28783 13.518 0.75 12.4167 0.75C11.3153 0.75 10.291 1.28667 8.24233 2.36233L5.909 3.58733C3.3995 4.90333 2.14417 5.5625 1.4465 6.74667C0.75 7.92967 0.75 9.40317 0.75 12.349V12.4855C0.75 15.4302 0.75 16.9037 1.4465 18.0867C2.14417 19.2708 3.3995 19.93 5.909 21.2472L8.24233 22.471C10.291 23.5455 11.3153 24.0833 12.4167 24.0833C13.518 24.0833 14.5423 23.5467 16.591 22.471L18.9243 21.246C21.4338 19.9288 22.6892 19.2708 23.3868 18.0867C23.8768 17.2548 24.0215 16.2795 24.0647 14.75M22.9167 7.16667L18.25 9.5M18.25 9.5L17.6667 9.79167L12.4167 12.4167M18.25 9.5V13.5833M18.25 9.5L7.16667 3.66667M12.4167 12.4167L1.91667 7.16667M12.4167 12.4167V23.5" stroke="#14AE5C" stroke-width="1.5" stroke-linecap="round"/>
</svg>
