<svg width="22" height="22" viewBox="0 0 25 25" fill="none" xmlns="http://www.w3.org/2000/svg">
<path d="M22.7568 24.6761L14.1202 16.0394C13.4347 16.5878 12.6465 17.0219 11.7554 17.3418C10.8643 17.6617 9.91612 17.8216 8.9108 17.8216C6.42034 17.8216 4.31283 16.9588 2.58824 15.2334C0.863663 13.5079 0.000914653 11.4003 7.2534e-07 8.9108C-0.000913203 6.42126 0.861835 4.31374 2.58824 2.58824C4.31465 0.862748 6.42217 0 8.9108 0C11.3994 0 13.5074 0.862748 15.2347 2.58824C16.962 4.31374 17.8243 6.42126 17.8216 8.9108C17.8216 9.91612 17.6617 10.8643 17.3418 11.7554C17.0219 12.6465 16.5878 13.4347 16.0394 14.1202L24.6761 22.7568L22.7568 24.6761ZM8.9108 15.0798C10.6244 15.0798 12.0812 14.4803 13.2812 13.2812C14.4812 12.0821 15.0807 10.6253 15.0798 8.9108C15.0789 7.19627 14.4794 5.73993 13.2812 4.54177C12.083 3.34361 10.6262 2.74361 8.9108 2.74178C7.19536 2.73996 5.73901 3.33995 4.54177 4.54177C3.34452 5.74358 2.74453 7.19992 2.74178 8.9108C2.73904 10.6217 3.33904 12.0785 4.54177 13.2812C5.7445 14.4839 7.20084 15.0835 8.9108 15.0798Z" fill="#D9D9D9"/>
</svg>
